<svg xmlns="http://www.w3.org/2000/svg" width="24" height="24" viewBox="0 -960 960 960" fill="currentColor"><path d="M480-480q-66 0-113-47t-47-113q0-66 47-113t113-47q66 0 113 47t47 113q0 66-47 113t-113 47Zm0-80q33 0 56.5-23.5T560-640q0-33-23.5-56.5T480-720q-33 0-56.5 23.5T400-640q0 33 23.5 56.5T480-560Zm0 400q-83 0-156-31.5T197-277q-54-54-85.5-127T80-560q0-83 31.5-156T197-843q54-54 127-85.5T480-960q83 0 156 31.5T763-843q54 54 85.5 127T880-560q0 83-31.5 156T763-277q-54 54-127 85.5T480-160Zm0-80q53 0 99-17t84-49q-14-29-40-44.5T560-368H400q-37 0-63 15.5T297-308q38 32 84 49t99 17Zm0-80Z"/></svg>
